<svg id="SvgjsSvg1008" xmlns="http://www.w3.org/2000/svg" version="1.1" xmlns:xlink="http://www.w3.org/1999/xlink" xmlns:svgjs="http://svgjs.com/svgjs" width="39.06849999999997" height="51.53500000000008" viewBox="0 0 39.06849999999997 51.53500000000008"><title>Forma 1</title><desc>Created with Avocode.</desc><defs id="SvgjsDefs1009"><clipPath id="SvgjsClipPath1013"><path id="SvgjsPath1012" d="M280.46575 547.7675V496.2325000000001H319.53425000000004V547.7675ZM315.511 529.613C316.132 529.014 316.132 528.017 315.511 527.397C314.911 526.798 313.91200000000003 526.798 313.31300000000005 527.397L302.05500000000006 538.634V501.55100000000004C302.0540000000001 500.68700000000007 301.36500000000007 500.00000000000006 300.4990000000001 500.00000000000006C299.6330000000001 500.00000000000006 298.92300000000006 500.68700000000007 298.92300000000006 501.55100000000004V538.634L287.68600000000004 527.397C287.064 526.798 286.064 526.798 285.46500000000003 527.397C284.84400000000005 528.017 284.84400000000005 529.0150000000001 285.46500000000003 529.613L299.389 543.5110000000001C299.98900000000003 544.1310000000001 300.988 544.1310000000001 301.586 543.5110000000001Z " fill="#ffffff"></path></clipPath></defs><path id="SvgjsPath1010" d="M315.511 529.613C316.132 529.014 316.132 528.017 315.511 527.397C314.911 526.798 313.91200000000003 526.798 313.31300000000005 527.397L302.05500000000006 538.634V501.55100000000004C302.0540000000001 500.68700000000007 301.36500000000007 500.00000000000006 300.4990000000001 500.00000000000006C299.6330000000001 500.00000000000006 298.92300000000006 500.68700000000007 298.92300000000006 501.55100000000004V538.634L287.68600000000004 527.397C287.064 526.798 286.064 526.798 285.46500000000003 527.397C284.84400000000005 528.017 284.84400000000005 529.0150000000001 285.46500000000003 529.613L299.389 543.5110000000001C299.98900000000003 544.1310000000001 300.988 544.1310000000001 301.586 543.5110000000001Z " fill="#d4e0f6" fill-opacity="1" transform="matrix(1,0,0,1,-280.46575,-496.23249999999996)"></path><path id="SvgjsPath1011" d="M315.511 529.613C316.132 529.014 316.132 528.017 315.511 527.397C314.911 526.798 313.91200000000003 526.798 313.31300000000005 527.397L302.05500000000006 538.634V501.55100000000004C302.0540000000001 500.68700000000007 301.36500000000007 500.00000000000006 300.4990000000001 500.00000000000006C299.6330000000001 500.00000000000006 298.92300000000006 500.68700000000007 298.92300000000006 501.55100000000004V538.634L287.68600000000004 527.397C287.064 526.798 286.064 526.798 285.46500000000003 527.397C284.84400000000005 528.017 284.84400000000005 529.0150000000001 285.46500000000003 529.613L299.389 543.5110000000001C299.98900000000003 544.1310000000001 300.988 544.1310000000001 301.586 543.5110000000001Z " fill-opacity="0" fill="#ffffff" stroke-dasharray="0" stroke-linejoin="round" stroke-linecap="round" stroke-opacity="1" stroke="#ffffff" stroke-miterlimit="50" stroke-width="8" clip-path="url(&quot;#SvgjsClipPath1013&quot;)" transform="matrix(1,0,0,1,-280.46575,-496.23249999999996)"></path></svg>