<svg id="SvgjsSvg1019" xmlns="http://www.w3.org/2000/svg" version="1.1" xmlns:xlink="http://www.w3.org/1999/xlink" xmlns:svgjs="http://svgjs.com/svgjs" width="19" height="14" viewBox="0 0 19 14"><title>Forma 1</title><desc>Created with Avocode.</desc><defs id="SvgjsDefs1020"></defs><path id="SvgjsPath1021" d="M291.745 1106H277.255C276.012 1106 275 1106.94 275 1108.1V1117.8999999999999C275 1119.06 276.012 1119.9999999999998 277.255 1119.9999999999998H291.745C292.988 1119.9999999999998 294 1119.0599999999997 294 1117.8999999999999V1108.1C294 1106.9399999999998 292.988 1106 291.745 1106ZM291.745 1118.15H277.255C277.072 1118.15 276.912 1118.0300000000002 276.912 1117.9V1109.4L283.465 1114.76C283.59999999999997 1114.87 283.77099999999996 1114.93 283.94599999999997 1114.93H285.053C285.229 1114.93 285.4 1114.8700000000001 285.534 1114.76L292.08799999999997 1109.4V1117.9C292.08799999999997 1118.0300000000002 291.92799999999994 1118.15 291.74499999999995 1118.15ZM284.5 1113.09L278.126 1107.85H290.87399999999997Z " fill="#79b3ec" fill-opacity="1" transform="matrix(1,0,0,1,-275,-1106)"></path></svg>