<svg id="SvgjsSvg1031" xmlns="http://www.w3.org/2000/svg" version="1.1" xmlns:xlink="http://www.w3.org/1999/xlink" xmlns:svgjs="http://svgjs.com/svgjs" width="31" height="30" viewBox="0 0 31 30"><title>Forma 1 copy 6</title><desc>Created with Avocode.</desc><defs id="SvgjsDefs1032"></defs><path id="SvgjsPath1033" d="M541.878 1492C533.591 1492 526.8720000000001 1498.71 526.8720000000001 1507C526.8720000000001 1515.28 533.5910000000001 1522 541.878 1522C550.1650000000001 1522 556.884 1515.28 556.884 1507C556.884 1498.71 550.165 1492 541.878 1492ZM545.758 1507H543.297L543.296 1516H539.921V1507H537.6700000000001V1503.9H539.921L539.918 1502.0700000000002C539.918 1499.5400000000002 540.604 1498.0000000000002 543.585 1498.0000000000002H546.0690000000001V1501.1000000000001H544.5160000000001C543.354 1501.1000000000001 543.297 1501.5300000000002 543.297 1502.3400000000001L543.294 1503.9H546.086Z " fill="#ffffff" fill-opacity="1" transform="matrix(1,0,0,1,-526,-1492)"></path></svg>