<svg id="SvgjsSvg1025" xmlns="http://www.w3.org/2000/svg" version="1.1" xmlns:xlink="http://www.w3.org/1999/xlink" xmlns:svgjs="http://svgjs.com/svgjs" width="31" height="30" viewBox="0 0 31 30"><title>Forma 1 copy 4</title><desc>Created with Avocode.</desc><defs id="SvgjsDefs1026"></defs><path id="SvgjsPath1027" d="M622.134 1504.13C622.134 1502.5900000000001 621.218 1500.2 619.447 1500.2C618.893 1500.2 618.296 1500.48 617.954 1500.91C617.5909999999999 1501.3600000000001 617.4849999999999 1501.93 617.4849999999999 1502.48C617.4849999999999 1503.91 618.3169999999999 1506.28 620.151 1506.28C620.684 1506.28 621.26 1506.02 621.602 1505.68C622.092 1505.19 622.134 1504.51 622.134 1504.13ZM637.625 1507C637.625 1498.72 630.907 1492 622.621 1492C614.335 1492 607.6179999999999 1498.72 607.6179999999999 1507C607.6179999999999 1515.28 614.3349999999999 1522 622.621 1522C630.9069999999999 1522 637.625 1515.28 637.625 1507ZM627.238 1504.11H628.392V1506.4199999999998H630.7V1507.57H628.392V1509.8799999999999H627.238V1507.57H624.9300000000001V1506.4199999999998H627.238ZM614.542 1512.7C614.542 1511.93 614.926 1510.8400000000001 616.1840000000001 1510.0900000000001C617.5060000000001 1509.2800000000002 619.2980000000001 1509.18 620.2570000000001 1509.1100000000001C619.9590000000001 1508.73 619.618 1508.3200000000002 619.618 1507.66C619.618 1507.3000000000002 619.724 1507.0900000000001 619.83 1506.8300000000002C619.596 1506.8500000000001 619.361 1506.88 619.147 1506.88C616.8870000000001 1506.88 615.6080000000001 1505.19 615.6080000000001 1503.5300000000002C615.6080000000001 1502.5500000000002 616.0550000000001 1501.4600000000003 616.9730000000001 1500.6700000000003C618.1890000000001 1499.6700000000003 619.6400000000001 1499.5000000000002 620.791 1499.5000000000002H625.1840000000001L623.8190000000001 1500.2700000000002H622.4970000000001C622.9870000000001 1500.6700000000003 624.0110000000001 1501.5200000000002 624.0110000000001 1503.14C624.0110000000001 1504.72 623.1150000000001 1505.47 622.22 1506.17C621.943 1506.45 621.623 1506.75 621.623 1507.22C621.623 1507.68 621.9430000000001 1507.94 622.177 1508.13L622.945 1508.73C623.883 1509.52 624.735 1510.24 624.735 1511.71C624.735 1513.72 622.794 1515.74 619.1270000000001 1515.74C616.0360000000001 1515.74 614.542 1514.27 614.542 1512.7ZM620.983 1509.73C620.8119999999999 1509.71 620.7059999999999 1509.71 620.4929999999999 1509.71C620.3009999999999 1509.71 619.15 1509.75 618.2539999999999 1510.05C617.7849999999999 1510.22 616.4189999999999 1510.74 616.4189999999999 1512.25C616.4189999999999 1513.76 617.8909999999998 1514.85 620.1729999999999 1514.85C622.2199999999999 1514.85 623.3069999999999 1513.87 623.3069999999999 1512.55C623.3069999999999 1511.46 622.6049999999999 1510.8799999999999 620.983 1509.73Z " fill="#ffffff" fill-opacity="1" transform="matrix(1,0,0,1,-607,-1492)"></path></svg>