<svg id="SvgjsSvg1022" xmlns="http://www.w3.org/2000/svg" version="1.1" xmlns:xlink="http://www.w3.org/1999/xlink" xmlns:svgjs="http://svgjs.com/svgjs" width="30" height="30" viewBox="0 0 30 30"><title>Forma 1 copy 5</title><desc>Created with Avocode.</desc><defs id="SvgjsDefs1023"></defs><path id="SvgjsPath1024" d="M663.998 1510C665.653 1510 667.0020000000001 1508.65 667.0020000000001 1507C667.0020000000001 1506.34 666.788 1505.74 666.4330000000001 1505.25C665.8870000000001 1504.49 665.0010000000001 1504 663.9990000000001 1504C662.9970000000002 1504 662.1110000000001 1504.49 661.5640000000002 1505.25C661.2090000000002 1505.74 660.9970000000002 1506.34 660.9960000000002 1507C660.9960000000002 1508.65 662.3430000000002 1510 663.9980000000002 1510ZM670.554 1503.33V1500.81V1500.4299999999998L670.177 1500.4399999999998H667.662L667.672 1503.33ZM663.999 1492C655.73 1492 649.003 1498.73 649.003 1507C649.003 1515.27 655.73 1521.99 663.999 1521.99C672.268 1521.99 678.995 1515.27 678.995 1507C678.995 1498.73 672.268 1492 663.999 1492ZM672.528 1512.23C672.528 1514.05 671.049 1515.53 669.231 1515.53H658.7669999999999C656.949 1515.53 655.4709999999999 1514.05 655.4709999999999 1512.23V1501.77C655.4709999999999 1499.95 656.9489999999998 1498.47 658.7669999999999 1498.47H669.231C671.049 1498.47 672.528 1499.95 672.528 1501.77ZM668.664 1507C668.664 1509.57 666.572 1511.66 663.999 1511.66C661.426 1511.66 659.335 1509.5700000000002 659.335 1507C659.335 1506.38 659.4580000000001 1505.79 659.678 1505.25H657.132V1512.23C657.132 1513.13 657.8639999999999 1513.8600000000001 658.766 1513.8600000000001H669.23C670.1320000000001 1513.8600000000001 670.865 1513.13 670.865 1512.23V1505.25H668.318C668.538 1505.79 668.664 1506.38 668.664 1507Z " fill="#ffffff" fill-opacity="1" transform="matrix(1,0,0,1,-649,-1492)"></path></svg>