<svg id="SvgjsSvg1000" xmlns="http://www.w3.org/2000/svg" version="1.1" xmlns:xlink="http://www.w3.org/1999/xlink" xmlns:svgjs="http://svgjs.com/svgjs" width="23" height="25" viewBox="0 0 23 25"><title>Forma 1 copy 8</title><desc>Created with Avocode.</desc><defs id="SvgjsDefs1001"></defs><path id="SvgjsPath1007" d="M181.541 1960.71C180.114 1959.47 178.668 1958.72 177.259 1959.96L176.41899999999998 1960.71C175.80399999999997 1961.25 174.66 1963.79 170.236 1958.6100000000001C165.814 1953.45 168.445 1952.64 169.06099999999998 1952.1000000000001L169.90699999999998 1951.3500000000001C171.308 1950.1100000000001 170.779 1948.5500000000002 169.76899999999998 1946.94L169.15899999999996 1945.97C168.14399999999998 1944.3600000000001 167.03899999999996 1943.31 165.63399999999996 1944.55L164.87499999999997 1945.22C164.25399999999996 1945.68 162.51899999999998 1947.18 162.09799999999998 1950.02C161.59199999999998 1953.42 163.189 1957.33 166.851 1961.61C170.508 1965.8999999999999 174.088 1968.05 177.47899999999998 1968.01C180.29899999999998 1967.98 181.99999999999997 1966.44 182.53199999999998 1965.8799999999999L183.29399999999998 1965.2099999999998C184.694 1963.9699999999998 183.825 1962.7099999999998 182.397 1961.4599999999998Z " fill="#333333" fill-opacity="1" transform="matrix(1,0,0,1,-162,-1944)"></path></svg>