<svg id="SvgjsSvg1000" xmlns="http://www.w3.org/2000/svg" version="1.1" xmlns:xlink="http://www.w3.org/1999/xlink" xmlns:svgjs="http://svgjs.com/svgjs" width="16" height="17" viewBox="0 0 16 17"><title>Forma 1</title><desc>Created with Avocode.</desc><defs id="SvgjsDefs1001"></defs><path id="SvgjsPath1007" d="M355.323 67.1415C354.351 66.31479999999999 353.364 65.8141 352.404 66.63929999999999L351.831 67.1382C351.41200000000003 67.5016 350.632 69.1927 347.61600000000004 65.743C344.6 62.297399999999996 346.39500000000004 61.76069999999999 346.81500000000005 61.401999999999994L347.3910000000001 60.9021C348.34600000000006 60.074099999999994 347.9860000000001 59.032199999999996 347.2970000000001 57.9604L346.8810000000001 57.311C346.1890000000001 56.241 345.4360000000001 55.5388 344.47800000000007 56.3644L343.9600000000001 56.814400000000006C343.5370000000001 57.12070000000001 342.3540000000001 58.1178 342.0670000000001 60.01140000000001C341.7220000000001 62.28320000000001 342.81100000000015 64.88570000000001 345.30700000000013 67.74040000000001C347.80100000000016 70.59720000000002 350.24200000000013 72.03150000000001 352.55400000000014 72.0065C354.47600000000017 71.9865 355.63600000000014 70.9606 355.99900000000014 70.5878L356.5190000000001 70.1376C357.4730000000001 69.3117 356.8800000000001 68.4711 355.9070000000001 67.64240000000001Z " fill="#6699cc" fill-opacity="1" transform="matrix(1,0,0,1,-342,-56)"></path></svg>