<svg id="SvgjsSvg1028" xmlns="http://www.w3.org/2000/svg" version="1.1" xmlns:xlink="http://www.w3.org/1999/xlink" xmlns:svgjs="http://svgjs.com/svgjs" width="30" height="30" viewBox="0 0 30 30"><title>Forma 1 copy 3</title><desc>Created with Avocode.</desc><defs id="SvgjsDefs1029"></defs><path id="SvgjsPath1030" d="M583 1492C574.716 1492 568.001 1498.71 568.001 1507C568.001 1515.28 574.716 1522 583 1522C591.284 1522 597.999 1515.28 597.999 1507C597.999 1498.71 591.284 1492 583 1492ZM590.608 1508.62C591.308 1509.3 592.0469999999999 1509.9499999999998 592.675 1510.6999999999998C592.953 1511.0299999999997 593.2149999999999 1511.3799999999999 593.415 1511.7699999999998C593.699 1512.3199999999997 593.442 1512.9199999999998 592.947 1512.9599999999998H589.875C589.081 1513.0199999999998 588.449 1512.6999999999998 587.917 1512.1599999999999C587.4920000000001 1511.7299999999998 587.0980000000001 1511.2699999999998 586.688 1510.82C586.521 1510.6299999999999 586.345 1510.46 586.135 1510.33C585.716 1510.05 585.352 1510.1399999999999 585.112 1510.57C584.8679999999999 1511.02 584.8109999999999 1511.51 584.788 1512.01C584.755 1512.73 584.5360000000001 1512.92 583.809 1512.96C582.256 1513.03 580.7819999999999 1512.79 579.4119999999999 1512.01C578.203 1511.32 577.2679999999999 1510.35 576.453 1509.24C574.866 1507.09 573.65 1504.73 572.558 1502.3C572.312 1501.75 572.492 1501.46 573.096 1501.45C574.098 1501.43 575.101 1501.43 576.104 1501.44C576.5120000000001 1501.45 576.783 1501.69 576.9390000000001 1502.0700000000002C577.4810000000001 1503.4 578.1460000000001 1504.67 578.9780000000001 1505.8500000000001C579.2 1506.16 579.427 1506.47 579.749 1506.7C580.105 1506.94 580.376 1506.8600000000001 580.544 1506.46C580.6519999999999 1506.21 580.698 1505.94 580.721 1505.67C580.801 1504.74 580.811 1503.8100000000002 580.673 1502.89C580.587 1502.3100000000002 580.2620000000001 1501.94 579.686 1501.8300000000002C579.392 1501.7800000000002 579.4350000000001 1501.67 579.5780000000001 1501.5000000000002C579.8260000000001 1501.2100000000003 580.0580000000001 1501.0300000000002 580.5210000000001 1501.0300000000002H583.993C584.541 1501.14 584.663 1501.38 584.7370000000001 1501.9300000000003L584.7400000000001 1505.7900000000002C584.7340000000002 1506.0100000000002 584.8470000000001 1506.64 585.2300000000001 1506.7800000000002C585.5370000000001 1506.88 585.7400000000001 1506.63 585.9230000000001 1506.4400000000003C586.7560000000001 1505.5500000000002 587.3490000000002 1504.5100000000002 587.8800000000001 1503.4300000000003C588.1150000000001 1502.9600000000003 588.3170000000001 1502.4600000000003 588.5140000000001 1501.9700000000003C588.6600000000001 1501.6100000000004 588.8870000000002 1501.4300000000003 589.2990000000001 1501.4300000000003L592.642 1501.4400000000003C592.74 1501.4400000000003 592.84 1501.4400000000003 592.9380000000001 1501.4500000000003C593.5010000000001 1501.5500000000002 593.6560000000001 1501.7900000000002 593.4810000000001 1502.3400000000004C593.2070000000001 1503.2100000000003 592.6740000000001 1503.9200000000003 592.1520000000002 1504.6500000000003C591.5940000000002 1505.4200000000003 590.9980000000002 1506.1600000000003 590.4450000000002 1506.9400000000003C589.9370000000001 1507.6500000000003 589.9780000000002 1508.0100000000002 590.6080000000002 1508.6200000000003Z " fill="#ffffff" fill-opacity="1" transform="matrix(1,0,0,1,-568,-1492)"></path></svg>